<?xml version="1.0" encoding="UTF-8" standalone="no"?>
<!-- Created with Inkscape (http://www.inkscape.org/) -->
<svg
   xmlns:dc="http://purl.org/dc/elements/1.1/"
   xmlns:cc="http://creativecommons.org/ns#"
   xmlns:rdf="http://www.w3.org/1999/02/22-rdf-syntax-ns#"
   xmlns:svg="http://www.w3.org/2000/svg"
   xmlns="http://www.w3.org/2000/svg"
   xmlns:xlink="http://www.w3.org/1999/xlink"
   xmlns:sodipodi="http://sodipodi.sourceforge.net/DTD/sodipodi-0.dtd"
   xmlns:inkscape="http://www.inkscape.org/namespaces/inkscape"
   width="315.71429"
   height="138.57143"
   id="svg2"
   sodipodi:version="0.32"
   inkscape:version="0.46"
   sodipodi:docname="Rolcol_Click_Me.svg"
   inkscape:output_extension="org.inkscape.output.svg.inkscape"
   inkscape:export-filename="/home/roly/Desktop/Click-Me.png"
   inkscape:export-xdpi="93.194481"
   inkscape:export-ydpi="93.194481"
   version="1.0">
  <defs
     id="defs4">
    <linearGradient
       inkscape:collect="always"
       id="linearGradient3195">
      <stop
         style="stop-color: rgb(255, 255, 255); stop-opacity: 1;"
         offset="0"
         id="stop3197" />
      <stop
         style="stop-color: rgb(255, 255, 255); stop-opacity: 0;"
         offset="1"
         id="stop3199" />
    </linearGradient>
    <linearGradient
       id="linearGradient3167">
      <stop
         style="stop-color: rgb(0, 131, 0); stop-opacity: 1;"
         offset="0"
         id="stop3169" />
      <stop
         id="stop3175"
         offset="0.91823566"
         style="stop-color: rgb(0, 56, 0); stop-opacity: 1;" />
      <stop
         style="stop-color: rgb(0, 131, 0); stop-opacity: 1;"
         offset="1"
         id="stop3171" />
    </linearGradient>
    <inkscape:perspective
       sodipodi:type="inkscape:persp3d"
       inkscape:vp_x="0 : 526.18109 : 1"
       inkscape:vp_y="0 : 1000 : 0"
       inkscape:vp_z="744.09448 : 526.18109 : 1"
       inkscape:persp3d-origin="372.04724 : 350.78739 : 1"
       id="perspective10" />
    <linearGradient
       inkscape:collect="always"
       xlink:href="#linearGradient3167"
       id="linearGradient3173"
       x1="359.90439"
       y1="456.89539"
       x2="359.90439"
       y2="595.9978"
       gradientUnits="userSpaceOnUse" />
    <linearGradient
       inkscape:collect="always"
       xlink:href="#linearGradient3195"
       id="linearGradient3201"
       x1="378.88953"
       y1="452.66711"
       x2="378.88953"
       y2="522.95947"
       gradientUnits="userSpaceOnUse" />
    <filter
       inkscape:collect="always"
       id="filter4083"
       x="-0.034838688"
       width="1.0696774"
       y="-0.18305147"
       height="1.3661029">
      <feGaussianBlur
         inkscape:collect="always"
         stdDeviation="4.2267352"
         id="feGaussianBlur4085" />
    </filter>
  </defs>
  <sodipodi:namedview
     id="base"
     pagecolor="#ffffff"
     bordercolor="#666666"
     borderopacity="1.0"
     gridtolerance="10000"
     guidetolerance="10"
     objecttolerance="10"
     inkscape:pageopacity="0.0"
     inkscape:pageshadow="2"
     inkscape:zoom="1"
     inkscape:cx="280.97715"
     inkscape:cy="129.78016"
     inkscape:document-units="px"
     inkscape:current-layer="layer1"
     showgrid="false"
     inkscape:window-width="1280"
     inkscape:window-height="723"
     inkscape:window-x="0"
     inkscape:window-y="53"
     showguides="true"
     inkscape:guide-bbox="true" />
  <metadata
     id="metadata7">
    <rdf:RDF>
      <cc:Work
         rdf:about="">
        <dc:format>image/svg+xml</dc:format>
        <dc:type
           rdf:resource="http://purl.org/dc/dcmitype/StillImage" />
      </cc:Work>
    </rdf:RDF>
  </metadata>
  <g
     inkscape:label="Layer 1"
     inkscape:groupmode="layer"
     id="layer1"
     transform="translate(-214.19, -456.895)">
    <rect
       style="fill: url(#linearGradient3173) rgb(0, 0, 0); fill-opacity: 1; stroke: none;"
       id="rect3165"
       width="315.71429"
       height="138.57143"
       x="214.19009"
       y="456.89539"
       rx="22.857143"
       ry="22.857143" />
    <path
       style="font-size:71.60510254px;font-style:normal;font-weight:normal;fill:#ffffff;fill-opacity:1;stroke:none;stroke-width:1px;stroke-linecap:butt;stroke-linejoin:miter;stroke-opacity:1;filter:url(#filter4083);font-family:Bitstream Vera Sans"
       d="M 268.55576,504.69637 L 268.55576,512.14358 C 266.1782,509.92927 263.63753,508.27434 260.93373,507.17877 C 258.25317,506.0833 255.39782,505.53554 252.36769,505.53549 C 246.40057,505.53554 241.83202,507.36529 238.66203,511.02475 C 235.492,514.66099 233.90699,519.9288 233.907,526.82822 C 233.90699,533.70438 235.492,538.9722 238.66203,542.63169 C 241.83202,546.2679 246.40057,548.08599 252.36769,548.08599 C 255.39782,548.08599 258.25317,547.53823 260.93373,546.44271 C 263.63753,545.34719 266.1782,543.69226 268.55576,541.4779 L 268.55576,548.85518 C 266.08497,550.53343 263.46271,551.79211 260.68899,552.63123 C 257.93849,553.47035 255.02488,553.88991 251.94813,553.88992 C 244.04637,553.88991 237.82289,551.47744 233.27766,546.65249 C 228.73241,541.80424 226.45979,535.19615 226.45979,526.82822 C 226.45979,518.43703 228.73241,511.82895 233.27766,507.00396 C 237.82289,502.15575 244.04637,499.73162 251.94813,499.73156 C 255.0715,499.73162 258.00842,500.15118 260.75891,500.99025 C 263.53264,501.80611 266.13158,503.04149 268.55576,504.69637 M 279.25457,498.47288 L 285.68784,498.47288 L 285.68784,552.87598 L 279.25457,552.87598 L 279.25457,498.47288 M 299.11379,513.71694 L 305.54707,513.71694 L 305.54707,552.87598 L 299.11379,552.87598 L 299.11379,513.71694 M 299.11379,498.47288 L 305.54707,498.47288 L 305.54707,506.61936 L 299.11379,506.61936 L 299.11379,498.47288 M 347.15355,515.22036 L 347.15355,521.23407 C 345.33542,520.23182 343.50567,519.48594 341.66429,518.99641 C 339.84616,518.48365 338.00476,518.22725 336.14007,518.22722 C 331.96775,518.22725 328.7278,519.55586 326.42023,522.21305 C 324.11264,524.84699 322.95884,528.55311 322.95886,533.33142 C 322.95884,538.10977 324.11264,541.82754 326.42023,544.48475 C 328.7278,547.11867 331.96775,548.43563 336.14007,548.43562 C 338.00476,548.43563 339.84616,548.19088 341.66429,547.70139 C 343.50567,547.1886 345.33542,546.43106 347.15355,545.42877 L 347.15355,551.37255 C 345.35873,552.21167 343.49401,552.84101 341.5594,553.26057 C 339.64804,553.68013 337.60851,553.88991 335.4408,553.88992 C 329.54362,553.88991 324.85852,552.03686 321.3855,548.33073 C 317.91246,544.62462 316.17595,539.62485 316.17595,533.33142 C 316.17595,526.94479 317.92412,521.92172 321.42046,518.26218 C 324.9401,514.60271 329.7534,512.77296 335.86036,512.77292 C 337.8416,512.77296 339.77624,512.98274 341.66429,513.40227 C 343.55228,513.79856 345.38203,514.40459 347.15355,515.22036 M 358.02717,498.47288 L 364.4954,498.47288 L 364.4954,530.60427 L 383.69033,513.71694 L 391.90673,513.71694 L 371.13846,532.03777 L 392.78082,552.87598 L 384.38959,552.87598 L 364.4954,533.75098 L 364.4954,552.87598 L 358.02717,552.87598 L 358.02717,498.47288 M 422.74448,500.67558 L 433.26847,500.67558 L 446.58954,536.19842 L 459.98053,500.67558 L 470.50452,500.67558 L 470.50452,552.87598 L 463.61673,552.87598 L 463.61673,507.03892 L 450.1558,542.84147 L 443.05823,542.84147 L 429.59731,507.03892 L 429.59731,552.87598 L 422.74448,552.87598 L 422.74448,500.67558 M 517.63523,531.68814 L 517.63523,534.83485 L 488.05616,534.83485 C 488.33586,539.26356 489.66447,542.64336 492.042,544.97424 C 494.4428,547.28183 497.77598,548.43563 502.04154,548.43562 C 504.51226,548.43563 506.90142,548.13261 509.20904,547.52657 C 511.5399,546.92055 513.84748,546.0115 516.1318,544.79942 L 516.1318,550.88306 C 513.82418,551.86204 511.45832,552.60792 509.03422,553.12072 C 506.61006,553.63352 504.15097,553.88991 501.65694,553.88992 C 495.41012,553.88991 490.45697,552.07182 486.79748,548.43562 C 483.16128,544.79943 481.34318,539.88125 481.34319,533.68105 C 481.34318,527.27112 483.06804,522.18977 486.51777,518.437 C 489.9908,514.66099 494.66424,512.77296 500.53811,512.77292 C 505.8059,512.77296 509.96655,514.47452 513.02005,517.87758 C 516.0968,521.25741 517.63519,525.86093 517.63523,531.68814 M 511.20195,529.80011 C 511.1553,526.28049 510.16467,523.47176 508.23006,521.37393 C 506.3187,519.27615 503.77803,518.22725 500.60804,518.22722 C 497.01844,518.22725 494.13978,519.24119 491.97207,521.26904 C 489.82763,523.29695 488.59226,526.15229 488.26595,529.83508 L 511.20195,529.80011"
       id="text3207" />
    <path
       style="font-size:71.60510254px;font-style:normal;font-weight:normal;fill:#003000;fill-opacity:1;stroke:none;stroke-width:1px;stroke-linecap:butt;stroke-linejoin:miter;stroke-opacity:1;font-family:Bitstream Vera Sans"
       d="M 268.55576,504.69637 L 268.55576,512.14358 C 266.1782,509.92927 263.63753,508.27434 260.93373,507.17877 C 258.25317,506.0833 255.39782,505.53554 252.36769,505.53549 C 246.40057,505.53554 241.83202,507.36529 238.66203,511.02475 C 235.492,514.66099 233.90699,519.9288 233.907,526.82822 C 233.90699,533.70438 235.492,538.9722 238.66203,542.63169 C 241.83202,546.2679 246.40057,548.08599 252.36769,548.08599 C 255.39782,548.08599 258.25317,547.53823 260.93373,546.44271 C 263.63753,545.34719 266.1782,543.69226 268.55576,541.4779 L 268.55576,548.85518 C 266.08497,550.53343 263.46271,551.79211 260.68899,552.63123 C 257.93849,553.47035 255.02488,553.88991 251.94813,553.88992 C 244.04637,553.88991 237.82289,551.47744 233.27766,546.65249 C 228.73241,541.80424 226.45979,535.19615 226.45979,526.82822 C 226.45979,518.43703 228.73241,511.82895 233.27766,507.00396 C 237.82289,502.15575 244.04637,499.73162 251.94813,499.73156 C 255.0715,499.73162 258.00842,500.15118 260.75891,500.99025 C 263.53264,501.80611 266.13158,503.04149 268.55576,504.69637 M 279.25457,498.47288 L 285.68784,498.47288 L 285.68784,552.87598 L 279.25457,552.87598 L 279.25457,498.47288 M 299.11379,513.71694 L 305.54707,513.71694 L 305.54707,552.87598 L 299.11379,552.87598 L 299.11379,513.71694 M 299.11379,498.47288 L 305.54707,498.47288 L 305.54707,506.61936 L 299.11379,506.61936 L 299.11379,498.47288 M 347.15355,515.22036 L 347.15355,521.23407 C 345.33542,520.23182 343.50567,519.48594 341.66429,518.99641 C 339.84616,518.48365 338.00476,518.22725 336.14007,518.22722 C 331.96775,518.22725 328.7278,519.55586 326.42023,522.21305 C 324.11264,524.84699 322.95884,528.55311 322.95886,533.33142 C 322.95884,538.10977 324.11264,541.82754 326.42023,544.48475 C 328.7278,547.11867 331.96775,548.43563 336.14007,548.43562 C 338.00476,548.43563 339.84616,548.19088 341.66429,547.70139 C 343.50567,547.1886 345.33542,546.43106 347.15355,545.42877 L 347.15355,551.37255 C 345.35873,552.21167 343.49401,552.84101 341.5594,553.26057 C 339.64804,553.68013 337.60851,553.88991 335.4408,553.88992 C 329.54362,553.88991 324.85852,552.03686 321.3855,548.33073 C 317.91246,544.62462 316.17595,539.62485 316.17595,533.33142 C 316.17595,526.94479 317.92412,521.92172 321.42046,518.26218 C 324.9401,514.60271 329.7534,512.77296 335.86036,512.77292 C 337.8416,512.77296 339.77624,512.98274 341.66429,513.40227 C 343.55228,513.79856 345.38203,514.40459 347.15355,515.22036 M 358.02717,498.47288 L 364.4954,498.47288 L 364.4954,530.60427 L 383.69033,513.71694 L 391.90673,513.71694 L 371.13846,532.03777 L 392.78082,552.87598 L 384.38959,552.87598 L 364.4954,533.75098 L 364.4954,552.87598 L 358.02717,552.87598 L 358.02717,498.47288 M 422.74448,500.67558 L 433.26847,500.67558 L 446.58954,536.19842 L 459.98053,500.67558 L 470.50452,500.67558 L 470.50452,552.87598 L 463.61673,552.87598 L 463.61673,507.03892 L 450.1558,542.84147 L 443.05823,542.84147 L 429.59731,507.03892 L 429.59731,552.87598 L 422.74448,552.87598 L 422.74448,500.67558 M 517.63523,531.68814 L 517.63523,534.83485 L 488.05616,534.83485 C 488.33586,539.26356 489.66447,542.64336 492.042,544.97424 C 494.4428,547.28183 497.77598,548.43563 502.04154,548.43562 C 504.51226,548.43563 506.90142,548.13261 509.20904,547.52657 C 511.5399,546.92055 513.84748,546.0115 516.1318,544.79942 L 516.1318,550.88306 C 513.82418,551.86204 511.45832,552.60792 509.03422,553.12072 C 506.61006,553.63352 504.15097,553.88991 501.65694,553.88992 C 495.41012,553.88991 490.45697,552.07182 486.79748,548.43562 C 483.16128,544.79943 481.34318,539.88125 481.34319,533.68105 C 481.34318,527.27112 483.06804,522.18977 486.51777,518.437 C 489.9908,514.66099 494.66424,512.77296 500.53811,512.77292 C 505.8059,512.77296 509.96655,514.47452 513.02005,517.87758 C 516.0968,521.25741 517.63519,525.86093 517.63523,531.68814 M 511.20195,529.80011 C 511.1553,526.28049 510.16467,523.47176 508.23006,521.37393 C 506.3187,519.27615 503.77803,518.22725 500.60804,518.22722 C 497.01844,518.22725 494.13978,519.24119 491.97207,521.26904 C 489.82763,523.29695 488.59226,526.15229 488.26595,529.83508 L 511.20195,529.80011"
       id="text3203" />
    <path
       sodipodi:type="inkscape:offset"
       inkscape:radius="15.471718"
       inkscape:original="M 237.0625 475.8125 C 234.67434 475.8125 233.34375 477.14337 233.34375 479.5 L 233.34375 494.09375 C 349.08244 514.37311 452.13851 503.57561 510.75 493.28125 L 510.75 479.5 C 510.75 477.11184 509.45066 475.8125 507.0625 475.8125 L 237.0625 475.8125 z "
       style="fill: url(#linearGradient3201) rgb(0, 0, 0); fill-opacity: 1; stroke: none;"
       id="path3193"
       d="M 237.0625,460.34375 C 232.9944,460.34375 227.48518,461.75859 223.40625,465.8125 C 219.32732,469.86641 217.875,475.40983 217.875,479.5 L 217.875,494.09375 C 217.87149,501.61557 223.27772,508.05031 230.6875,509.34375 C 348.88364,530.0537 453.59808,519.04128 513.4375,508.53125 C 520.83486,507.22434 526.22492,500.79317 526.21875,493.28125 L 526.21875,479.5 C 526.21875,475.49999 524.86613,469.92863 520.75,465.8125 C 516.63387,461.69637 511.06251,460.34375 507.0625,460.34375 L 237.0625,460.34375 z"
       transform="translate(0.000364419)" />
  </g>
</svg>
